<svg width="40" height="40" viewBox="0 0 40 40" fill="none" xmlns="http://www.w3.org/2000/svg">
<circle cx="20" cy="20" r="20" fill="#F377DC"/>
<mask id="path-2-inside-1_102_725" fill="white">
<path d="M11.5625 16.375H27.9688V29C27.9688 30.6569 26.6256 32 24.9688 32H14.5625C12.9056 32 11.5625 30.6569 11.5625 29V16.375Z"/>
</mask>
<path d="M11.5625 16.375H27.9688H11.5625ZM29.9688 29C29.9688 31.7614 27.7302 34 24.9688 34H14.5625C11.8011 34 9.5625 31.7614 9.5625 29H13.5625C13.5625 29.5523 14.0102 30 14.5625 30H24.9688C25.521 30 25.9688 29.5523 25.9688 29H29.9688ZM14.5625 34C11.8011 34 9.5625 31.7614 9.5625 29V16.375H13.5625V29C13.5625 29.5523 14.0102 30 14.5625 30V34ZM29.9688 16.375V29C29.9688 31.7614 27.7302 34 24.9688 34V30C25.521 30 25.9688 29.5523 25.9688 29V16.375H29.9688Z" fill="#FEFEFE" mask="url(#path-2-inside-1_102_725)"/>
<rect x="16.6406" y="16.7656" width="0.78125" height="10.9375" rx="0.390625" fill="#D9D9D9" stroke="#FEFEFE" stroke-width="0.78125"/>
<rect x="10.3906" y="12.0781" width="0.78125" height="18.75" rx="0.390625" transform="rotate(-90 10.3906 12.0781)" fill="#D9D9D9" stroke="#FEFEFE" stroke-width="0.78125"/>
<rect x="22.1094" y="16.7656" width="0.78125" height="10.9375" rx="0.390625" fill="#D9D9D9" stroke="#FEFEFE" stroke-width="0.78125"/>
<rect x="26.4712" y="14.5" width="1" height="10" rx="0.5" fill="#D9D9D9" stroke="#FEFEFE"/>
<rect x="12.0713" y="14.5" width="1" height="10" rx="0.5" fill="#D9D9D9" stroke="#FEFEFE"/>
<path d="M17.6875 8H21.8437C22.9483 8 23.8438 8.89543 23.8438 10V11.4688H15.6875V10C15.6875 8.89543 16.5829 8 17.6875 8Z" stroke="#FEFEFE" stroke-width="2"/>
</svg>
