<svg width="40" height="40" viewBox="0 0 40 40" fill="none" xmlns="http://www.w3.org/2000/svg">
<circle cx="20" cy="20" r="20" fill="#F377DC"/>
<mask id="path-2-inside-1_102_719" fill="white">
<path d="M22.3118 12.1442L28.0222 16.9358L18.01 28.8679L12.2996 24.0763L22.3118 12.1442Z"/>
</mask>
<path d="M26.4901 15.6503L16.4779 27.5823L19.5421 30.1535L29.5543 18.2214L26.4901 15.6503ZM13.8317 25.3619L23.8439 13.4298L20.7797 10.8586L10.7675 22.7907L13.8317 25.3619Z" fill="#FEFEFE" mask="url(#path-2-inside-1_102_719)"/>
<path d="M28.7212 14.5463L27.7658 15.6849L23.5897 12.1807L24.5451 11.0421C25.5128 9.88896 27.2321 9.73855 28.3852 10.7062C29.5384 11.6738 29.6888 13.3931 28.7212 14.5463Z" stroke="#FEFEFE" stroke-width="2"/>
<path d="M11.7977 30.4871L13.1497 24.5958L17.3648 28.1326L11.7977 30.4871Z" stroke="#FEFEFE" stroke-width="2"/>
</svg>
